<svg width="24" height="24" viewBox="0 0 24 24" fill="none" xmlns="http://www.w3.org/2000/svg">
<path d="M20 10.5V7.2C20 6.0799 20 5.51984 19.782 5.09202C19.5903 4.71569 19.2843 4.40973 18.908 4.21799C18.4802 4 17.9201 4 16.8 4H7.2C6.0799 4 5.51984 4 5.09202 4.21799C4.71569 4.40973 4.40973 4.71569 4.21799 5.09202C4 5.51984 4 6.07989 4 7.2V16.8C4 17.9201 4 18.4802 4.21799 18.908C4.40973 19.2843 4.71569 19.5903 5.09202 19.782C5.51984 20 6.07989 20 7.2 20H12M8 12.5L10.5 15L16 9" stroke="black" stroke-width="2" stroke-linecap="round" stroke-linejoin="round"/>
<path d="M21.8333 17L21.834 21C21.834 21.7001 21.834 22.0501 21.6977 22.3175C21.5779 22.5527 21.3867 22.7439 21.1515 22.8638C20.8841 23 20.534 23 19.834 23H18.834C18.1339 23 17.7839 23 17.5165 22.8638C17.2813 22.7439 17.0901 22.5527 16.9702 22.3175C16.834 22.0501 16.834 21.7001 16.834 21L16.8333 17M16 17H17M22.6667 17H21.6977M17 17L17.5578 15.8845C17.7183 15.5634 17.7986 15.4029 17.9183 15.2856C18.0242 15.1819 18.1518 15.103 18.292 15.0547C18.4504 15 18.6299 15 18.9889 15H19.5932C19.9239 15 20.0892 15 20.2377 15.0475C20.3691 15.0895 20.4905 15.1582 20.594 15.2494C20.7111 15.3524 20.796 15.4943 20.9659 15.7779L21.6977 17M17 17H21.6977" stroke="black" stroke-width="1.5" stroke-linecap="round" stroke-linejoin="round"/>
</svg>
