<svg width="24" height="24" viewBox="0 0 24 24" fill="none" xmlns="http://www.w3.org/2000/svg">
<path d="M10.8214 14.6401C10.6939 14.462 10.538 14.3061 10.3599 14.1786C10.1591 14.0347 9.92083 13.9407 9.44437 13.7528L5 12L9.44437 10.2472C9.92083 10.0593 10.1591 9.9653 10.3599 9.82143C10.538 9.69391 10.6939 9.538 10.8214 9.35994C10.9653 9.15906 11.0593 8.92083 11.2472 8.44437L13 4L14.7528 8.44437C14.9407 8.92083 15.0347 9.15906 15.1786 9.35994C15.3061 9.538 15.462 9.69391 15.6401 9.82143M5 16V20M6 4V8M7 18H3M8 6H4" stroke="black" stroke-width="2" stroke-linecap="round" stroke-linejoin="round"/>
<path d="M20.9432 11.2444C21.6305 11.9316 21.6305 13.0459 20.9432 13.7332L15.7948 18.8816C15.2834 19.393 15.0278 19.6486 14.7363 19.8516C14.4777 20.0317 14.1987 20.1806 13.9051 20.2952C13.5743 20.4244 13.2195 20.4945 12.5101 20.6347L11.1953 20.8945L11.5134 19.5417C11.6684 18.882 11.746 18.5522 11.875 18.2447C11.9895 17.9717 12.134 17.7123 12.3058 17.4712C12.4993 17.1996 12.7389 16.96 13.218 16.4808L18.4545 11.2444" stroke="black" stroke-width="2" stroke-linecap="round" stroke-linejoin="round"/>
</svg>
