<svg width="24" height="24" viewBox="0 0 24 24" fill="none" xmlns="http://www.w3.org/2000/svg">
<path d="M11 18H13M18 12.5V17.8C18 18.9201 18 19.4802 17.782 19.908C17.5903 20.2843 17.2843 20.5903 16.908 20.782C16.4802 21 15.9201 21 14.8 21H9.2C8.07989 21 7.51984 21 7.09202 20.782C6.71569 20.5903 6.40973 20.2843 6.21799 19.908C6 19.4802 6 18.9201 6 17.8V6.2C6 5.07989 6 4.51984 6.21799 4.09202C6.40973 3.71569 6.71569 3.40973 7.09202 3.21799C7.51984 3 8.0799 3 9.2 3H10" stroke="black" stroke-width="2" stroke-linecap="round" stroke-linejoin="round"/>
<path d="M18.1213 3.87868C19.2929 5.05025 19.2929 6.94975 18.1213 8.12132C16.9497 9.29289 15.0503 9.29289 13.8787 8.12132C12.7071 6.94975 12.7071 5.05025 13.8787 3.87868C15.0503 2.70711 16.9497 2.70711 18.1213 3.87868Z" stroke="black" stroke-width="2" stroke-linecap="round" stroke-linejoin="round"/>
</svg>
