<svg width="24" height="24" viewBox="0 0 24 24" fill="none" xmlns="http://www.w3.org/2000/svg">
<path d="M8 3V5M11 3V5M14 3V5M12 9H8M14 13H8M11 21H7.2C6.07989 21 5.51984 21 5.09202 20.782C4.71569 20.5903 4.40973 20.2843 4.21799 19.908C4 19.4802 4 18.9201 4 17.8V7.2C4 6.07989 4 5.51984 4.21799 5.09202C4.40973 4.71569 4.71569 4.40973 5.09202 4.21799C5.51984 4 6.0799 4 7.2 4H14.8C15.9201 4 16.4802 4 16.908 4.21799C17.2843 4.40973 17.5903 4.71569 17.782 5.09202C18 5.51984 18 6.0799 18 7.2V11.5" stroke="black" stroke-width="2" stroke-linecap="round" stroke-linejoin="round"/>
<path d="M18 17V21" stroke="black" stroke-width="2" stroke-linecap="round"/>
<path d="M20 19L16 19" stroke="black" stroke-width="2" stroke-linecap="round"/>
</svg>
